<svg xmlns="http://www.w3.org/2000/svg" viewBox="0 0 200 277.52"><defs><style>.cls-1{fill:#f4f4f4;}</style></defs><g id="Layer_2" data-name="Layer 2"><g id="Layer_1-2" data-name="Layer 1"><path class="cls-1" d="M197.21,0H0V25H57.89c12.76,0,17,3.7,20.6,11,3.4,6.78,5.15,18.06,5.21,33.53.08,21.17,3.55,29.12,8.09,37.32l.79,1.44h30.89l-4.53-4.72c-6.88-7.17-10.22-18.31-10.22-34,0-15-.94-30.78-7.75-44.51h74V141.41H0v36.83C0,233,44.87,277.52,100,277.52S200,233,200,178.24V0ZM100,252.5a74.87,74.87,0,0,1-53.08-21.73A73.46,73.46,0,0,1,25,178.24V166.43H175v11.85a73.5,73.5,0,0,1-21.91,52.5A74.83,74.83,0,0,1,100,252.5Z"/><polygon class="cls-1" points="43.16 83.44 45.95 83.44 45.95 80.65 45.95 61.22 45.95 58.43 43.16 58.43 2.79 58.43 0 58.43 0 61.22 0 80.65 0 83.44 2.79 83.44 43.16 83.44"/></g></g></svg>