<svg xmlns="http://www.w3.org/2000/svg" viewBox="0 0 800 69.38"><defs><style>.cls-1{fill:#f4f4f4;}</style></defs><g id="Layer_2" data-name="Layer 2"><g id="Layer_1-2" data-name="Layer 1"><path class="cls-1" d="M475.75.89,501,69.08h-6.58l-7.84-21.2H457.28l-7.75,21.2H443L468.9.89Zm8.75,41.45L472.06,7.39l-12.89,35Z"/><path class="cls-1" d="M758.1.89l35.22,57.68h.19V.89H800V69.08h-7.26L757.53,11.4h-.19V69.08h-6.49V.89Z"/><path class="cls-1" d="M281.86.89l35.22,57.68h.19V.89h6.49V69.08H316.5L281.29,11.4h-.19V69.08h-6.49V.89Z"/><path class="cls-1" d="M45.58,1V7.82H6.79v28.5a14.67,14.67,0,0,1,1.33-.76c4.65-2.33,10.06-2.64,15.19-2.64,6.65,0,10.34-1.7,12.57-3.84V37c-2.83,1.56-5.42,2.67-12.57,2.7-4.75,0-9.3.5-12.14,1.92S6.79,44.78,6.79,49.7V68.94H0V1Z"/><path class="cls-1" d="M376.19,1h5.1a34,34,0,0,1,0,67.91H369.4V1Zm0,61.12h5.1a27.17,27.17,0,0,0,0-54.33h-5.11Z"/><path class="cls-1" d="M571.38,1V7.82H552V68.94h-6.8V7.82H525.8V1Z"/><path class="cls-1" d="M617.7,1V68.94h-6.79V1Z"/><path class="cls-1" d="M718.71,34.69A34.44,34.44,0,1,1,684.27,0,34.62,34.62,0,0,1,718.71,34.69Zm-61.94,0a27.51,27.51,0,1,0,27.5-27.75A27.58,27.58,0,0,0,656.77,34.69Z"/><path class="cls-1" d="M142.79,34.69A34.44,34.44,0,1,1,108.35,0,34.62,34.62,0,0,1,142.79,34.69Zm-61.94,0a27.51,27.51,0,1,0,27.5-27.75A27.58,27.58,0,0,0,80.85,34.69Z"/><path class="cls-1" d="M222.28,1v45c0,8.79-7.65,16.08-17.46,16.08s-17.46-7.29-17.46-16.08V1h-6.79v45c0,12.72,11,22.87,24.25,22.87s24.25-10.15,24.25-22.87V1Z"/></g></g></svg>