<svg xmlns="http://www.w3.org/2000/svg" viewBox="0 0 800 249.06"><defs><style>.cls-1{fill:#f4f4f4;}</style></defs><g id="Layer_2" data-name="Layer 2"><g id="Layer_1-2" data-name="Layer 1"><path class="cls-1" d="M475.75,180.57,501,248.76h-6.58l-7.84-21.21H457.28l-7.75,21.21H443l25.86-68.19ZM484.5,222l-12.44-35-12.89,35Z"/><path class="cls-1" d="M758.1,180.57l35.22,57.68h.19V180.57H800v68.19h-7.26l-35.21-57.68h-.19v57.68h-6.49V180.57Z"/><path class="cls-1" d="M281.86,180.57l35.22,57.68h.19V180.57h6.49v68.19H316.5l-35.21-57.68h-.19v57.68h-6.49V180.57Z"/><path class="cls-1" d="M45.58,180.71v6.79H6.79V216a14.67,14.67,0,0,1,1.33-.76c4.65-2.33,10.06-2.65,15.19-2.65,6.65,0,10.34-1.69,12.57-3.84v7.93c-2.83,1.57-5.42,2.68-12.57,2.71-4.75,0-9.3.49-12.14,1.92s-4.38,3.15-4.38,8.07v19.24H0V180.71Z"/><path class="cls-1" d="M376.19,180.71h5.1a34,34,0,0,1,0,67.91H369.4V180.71Zm0,61.12h5.1a27.17,27.17,0,0,0,0-54.33h-5.11Z"/><path class="cls-1" d="M571.38,180.71v6.79H552v61.12h-6.8V187.5H525.8v-6.79Z"/><path class="cls-1" d="M617.7,180.71v67.91h-6.79V180.71Z"/><path class="cls-1" d="M718.71,214.37a34.44,34.44,0,1,1-34.44-34.69A34.62,34.62,0,0,1,718.71,214.37Zm-61.94,0a27.51,27.51,0,1,0,27.5-27.76A27.58,27.58,0,0,0,656.77,214.37Z"/><path class="cls-1" d="M142.79,214.37a34.44,34.44,0,1,1-34.44-34.69A34.62,34.62,0,0,1,142.79,214.37Zm-61.94,0a27.51,27.51,0,1,0,27.5-27.76A27.58,27.58,0,0,0,80.85,214.37Z"/><path class="cls-1" d="M222.28,180.71v45c0,8.78-7.65,16.07-17.46,16.07s-17.46-7.29-17.46-16.07v-45h-6.79v45c0,12.72,11,22.87,24.25,22.87s24.25-10.15,24.25-22.87v-45Z"/><path class="cls-1" d="M380.22,81.36A19.37,19.37,0,0,0,386,95.22a20,20,0,0,0,28,0,19.39,19.39,0,0,0,5.78-13.85V78.25H380.22Z"/><path class="cls-1" d="M400,0a68.88,68.88,0,1,0,68.88,68.88A68.88,68.88,0,0,0,400,0ZM373.62,55.62V49.75h12.12v6.6H373.62Zm52.76-20.55V81.36a26.38,26.38,0,0,1-52.76,0V71.65h46.16V40.94H400.26c1.79,3.62,2,7.78,2,11.74,0,4.15.88,7.09,2.7,9l1.19,1.25H398l-.21-.38c-1.19-2.16-2.11-4.26-2.13-9.85,0-4.08-.48-7-1.37-8.84s-2.07-2.9-5.44-2.9H373.62v-6.6h52.76Z"/></g></g></svg>